<?xml version="1.0" standalone="no"?>
<!DOCTYPE svg PUBLIC "-//W3C//DTD SVG 20010904//EN"
 "http://www.w3.org/TR/2001/REC-SVG-20010904/DTD/svg10.dtd">
<svg version="1.0" xmlns="http://www.w3.org/2000/svg"
 width="400.000000pt" height="400.000000pt" viewBox="0 0 400.000000 400.000000"
 preserveAspectRatio="xMidYMid meet">

<g transform="translate(0.000000,400.000000) scale(0.100000,-0.100000)"
fill="#000000" stroke="none">
<path d="M0 2000 l0 -2000 2000 0 2000 0 0 2000 0 2000 -2000 0 -2000 0 0
-2000z m1310 1100 c0 -35 -3 -40 -27 -46 -91 -20 -117 -31 -137 -57 -21 -28
-21 -33 -21 -686 0 -607 1 -659 17 -683 23 -34 71 -48 170 -48 166 0 221 32
308 176 53 86 160 304 160 323 0 7 21 11 51 11 l52 0 -6 -77 c-4 -43 -14 -185
-23 -315 l-17 -238 -719 0 -718 0 0 40 c0 38 2 40 43 51 73 19 107 38 117 65
6 15 10 280 10 685 0 720 1 704 -57 727 -15 6 -47 16 -70 22 -42 10 -43 12
-43 50 l0 40 455 0 455 0 0 -40z m1829 12 c111 -25 223 -76 280 -127 132 -119
156 -397 49 -553 -33 -48 -120 -110 -187 -132 -38 -12 -42 -16 -36 -39 10 -43
159 -337 238 -471 103 -173 133 -209 187 -229 43 -16 45 -19 48 -59 l3 -42
-320 0 -320 0 -51 85 c-65 108 -179 343 -241 500 l-47 120 -52 3 -52 3 4 -270
c4 -317 3 -315 104 -342 l59 -16 3 -41 3 -42 -445 0 -446 0 0 40 c0 38 1 40
43 50 79 21 91 26 111 54 21 27 21 36 21 696 0 660 0 669 -21 696 -20 28 -32
33 -111 54 -42 10 -43 12 -43 51 l0 40 563 -4 c529 -3 567 -5 656 -25z m-519
-1887 c0 -41 3 -75 8 -75 4 0 16 7 26 15 33 25 91 19 128 -14 29 -26 33 -35
36 -97 3 -60 0 -74 -20 -104 -13 -19 -39 -43 -58 -52 -44 -23 -136 -23 -190
-2 l-40 16 0 173 c0 144 -2 174 -15 179 -8 3 -15 10 -15 15 0 9 35 16 108 19
l32 2 0 -75z m343 -120 l2 -190 28 -3 27 -3 0 107 c0 86 -3 111 -17 126 -9 10
-14 20 -12 22 2 2 34 7 72 11 l67 7 0 -130 c0 -122 1 -132 20 -142 43 -23 5
-30 -161 -30 -144 0 -169 2 -169 15 0 8 7 15 15 15 8 0 15 6 15 13 1 6 0 84 0
172 -1 129 -4 161 -15 168 -37 20 7 36 93 33 l33 -1 2 -190z m155 183 c7 -7
12 -24 12 -38 0 -34 -17 -50 -55 -50 -38 0 -55 16 -55 50 0 34 17 50 55 50 17
0 36 -5 43 -12z m-723 -33 c0 -27 -4 -30 -58 -43 -32 -8 -61 -12 -64 -8 -4 3
11 24 33 47 28 29 46 39 64 37 20 -2 25 -8 25 -33z m-1795 1 c0 -7 -9 -16 -20
-19 -19 -5 -20 -14 -20 -161 0 -154 0 -156 23 -161 41 -11 75 11 102 65 27 54
45 64 45 25 l0 -24 23 23 c13 13 47 29 76 37 l52 13 -3 45 c-4 57 -28 67 -49
19 -11 -26 -20 -33 -43 -33 -36 0 -56 27 -40 53 20 32 56 43 131 40 104 -5
113 -16 113 -134 0 -101 5 -124 26 -124 20 0 17 -18 -5 -30 -28 -14 -84 -12
-106 4 -17 12 -22 12 -39 0 -34 -24 -93 -18 -121 12 l-25 27 0 -27 0 -26 -160
0 c-136 0 -160 2 -160 15 0 8 6 15 14 15 20 0 26 33 26 156 0 128 -7 174 -26
174 -8 0 -14 7 -14 15 0 12 18 15 100 15 78 0 100 -3 100 -14z m837 -9 c39
-21 53 -44 53 -92 0 -28 -7 -43 -32 -66 l-33 -30 35 -66 c19 -36 43 -71 53
-77 9 -6 17 -17 17 -24 0 -10 -18 -12 -72 -10 l-73 3 -38 75 c-21 41 -42 77
-48 78 -5 2 -9 -23 -9 -57 0 -50 3 -62 20 -71 11 -6 18 -15 15 -21 -9 -13
-192 -12 -200 2 -4 6 2 13 14 16 20 5 21 11 21 168 0 157 -1 163 -21 168 -13
4 -18 10 -14 18 12 19 271 7 312 -14z m318 -89 c27 -21 55 -73 55 -103 0 -12
-16 -15 -90 -15 -89 0 -90 0 -90 -24 0 -14 10 -37 23 -52 18 -21 31 -26 65
-26 23 0 52 4 63 7 15 5 20 3 17 -6 -9 -26 -58 -52 -106 -57 -109 -10 -167 39
-167 143 0 70 24 112 77 138 48 24 119 22 153 -5z m185 0 c0 -20 1 -20 20 -3
10 9 39 20 64 22 42 5 48 3 81 -30 33 -33 35 -39 35 -99 0 -110 -52 -168 -153
-168 l-48 0 7 -37 c3 -21 12 -43 20 -49 26 -21 15 -24 -76 -24 -49 0 -90 2
-90 5 0 3 8 13 19 24 16 16 18 36 19 168 1 137 -1 152 -19 168 -28 26 -24 33
19 38 93 9 102 8 102 -15z m340 -75 c0 -128 5 -143 41 -143 l29 0 0 92 c0 71
-4 95 -17 110 -9 10 -14 20 -12 22 2 2 34 7 72 11 l67 7 0 -125 c0 -110 2
-127 18 -136 28 -16 2 -30 -63 -33 -53 -3 -60 -1 -57 15 3 16 0 16 -35 -3 -50
-27 -104 -26 -129 1 -16 17 -20 40 -22 125 -3 73 -8 106 -18 115 -30 25 -12
32 94 37 l32 2 0 -97z m1128 81 c44 -30 18 -93 -33 -80 -18 5 -27 15 -32 36
-4 23 -11 30 -28 30 -29 0 -45 -37 -45 -105 0 -72 29 -109 85 -107 56 2 68 9
85 45 12 27 26 35 78 52 l63 20 -3 45 c-3 37 -6 45 -23 45 -12 0 -21 -8 -23
-20 -6 -30 -22 -45 -46 -45 -46 0 -61 44 -25 76 17 15 36 19 104 19 119 0 125
-7 125 -142 0 -96 2 -105 20 -110 46 -12 4 -43 -58 -43 -23 0 -45 6 -52 15
-11 13 -15 13 -33 0 -34 -24 -95 -19 -119 9 l-21 23 -35 -23 c-72 -49 -187
-22 -218 51 -34 82 -7 166 66 203 53 26 135 30 168 6z"/>
<path d="M2675 3012 l-30 -7 -3 -363 -2 -362 89 0 c100 0 130 9 179 54 43 40
69 125 77 257 13 205 -24 361 -97 403 -34 21 -157 31 -213 18z"/>
<path d="M2622 1018 l3 -103 33 -3 c27 -3 34 1 42 23 6 14 10 52 10 83 0 71
-19 102 -61 102 l-30 0 3 -102z"/>
<path d="M847 1013 c-4 -3 -7 -24 -7 -45 0 -31 3 -38 20 -38 17 0 20 7 20 45
0 43 -14 58 -33 38z"/>
<path d="M1297 1233 c-4 -3 -7 -42 -7 -85 0 -70 2 -78 19 -78 36 0 51 27 51
90 0 48 -4 61 -19 70 -23 12 -35 13 -44 3z"/>
<path d="M1641 1131 c-6 -11 -11 -29 -11 -40 0 -17 6 -21 36 -21 35 0 35 1 32
38 -2 29 -8 38 -25 40 -14 2 -26 -4 -32 -17z"/>
<path d="M1950 1015 l0 -105 30 0 c39 0 50 23 50 105 0 82 -11 105 -50 105
l-30 0 0 -105z"/>
<path d="M3547 1013 c-4 -3 -7 -24 -7 -45 0 -31 3 -38 20 -38 17 0 20 7 20 45
0 43 -14 58 -33 38z"/>
</g>
</svg>
